<svg width="16" height="16" viewBox="0 0 16 16" fill="none" xmlns="http://www.w3.org/2000/svg">
    <path d="M8.00004 3.09327C9.50223 3.09327 10.5155 3.74215 11.0933 4.28436L13.351 2.07996C11.9644 0.791096 10.16 0 8.00004 0C4.87121 0 2.16904 1.79552 0.853508 4.4088L3.44013 6.41765C4.089 4.4888 5.88452 3.09327 8.00004 3.09327Z" fill="#EA4335"/>
    <path d="M15.6803 8.17765C15.6803 7.51989 15.627 7.0399 15.5115 6.54213H8.00049V9.51096H12.4093C12.3204 10.2487 11.8404 11.3598 10.7738 12.1065L13.2982 14.062C14.8092 12.6665 15.6803 10.6132 15.6803 8.17765Z" fill="#4285F4"/>
    <path d="M3.44882 9.58207C3.27994 9.0843 3.18216 8.55098 3.18216 7.99988C3.18216 7.44878 3.27994 6.91546 3.43993 6.41769L0.853317 4.40884C0.311105 5.49326 0 6.71101 0 7.99988C0 9.28874 0.311105 10.5065 0.853317 11.5909L3.44882 9.58207Z" fill="#FBBC05"/>
    <path d="M8.00027 15.9995C10.1602 15.9995 11.9735 15.2884 13.2979 14.0618L10.7735 12.1063C10.098 12.5774 9.19135 12.9063 8.00027 12.9063C5.88475 12.9063 4.08923 11.5107 3.44924 9.58188L0.862625 11.5907C2.17816 14.204 4.87144 15.9995 8.00027 15.9995Z" fill="#34A853"/>
</svg>
